<?xml version="1.0" encoding="utf-8"?>
<!-- Generator: Adobe Illustrator 24.3.0, SVG Export Plug-In . SVG Version: 6.00 Build 0)  -->
<svg version="1.1" id="Layer_1" xmlns="http://www.w3.org/2000/svg" xmlns:xlink="http://www.w3.org/1999/xlink" x="0px" y="0px"
	 viewBox="0 0 24 24" style="enable-background:new 0 0 24 24;" xml:space="preserve">
<style type="text/css">
	.st0{fill:none;stroke:#000000;stroke-miterlimit:10;}
</style>
<path class="st0" d="M21.8,3h-1.2c-0.8,0-1.4,0.6-1.4,1.4v10.2c0,0.8,0.6,1.4,1.4,1.4h1.2c0.8,0,1.4-0.6,1.4-1.4V4.4
	C23.2,3.6,22.6,3,21.8,3z M1.2,14c0,1.1,0.9,2,2,2h6.3l-0.9,4.6l0,0.3c0,0.4,0.2,0.8,0.4,1.1L10,23l6.6-6.6c0.4-0.4,0.6-0.9,0.6-1.4
	V5c0-1.1-0.9-2-2-2h-9C5.4,3,4.6,3.5,4.3,4.2l-3,7.1c-0.1,0.2-0.1,0.5-0.1,0.7V14L1.2,14L1.2,14z"/>
</svg>
