<?xml version="1.0" encoding="utf-8"?>
<!-- Generator: Adobe Illustrator 24.3.0, SVG Export Plug-In . SVG Version: 6.00 Build 0)  -->
<svg version="1.1" id="Layer_1" xmlns="http://www.w3.org/2000/svg" xmlns:xlink="http://www.w3.org/1999/xlink" x="0px" y="0px"
	 viewBox="0 0 24 24" style="enable-background:new 0 0 24 24;" xml:space="preserve">
<style type="text/css">
	.st0{fill:none;stroke:#000000;stroke-miterlimit:10;}
</style>
<path class="st0" d="M2.4,21h1.2C4.4,21,5,20.4,5,19.6V9.4C5,8.6,4.4,8,3.6,8H2.4C1.6,8,1,8.6,1,9.4v10.2C1,20.4,1.6,21,2.4,21z
	 M23,10c0-1.1-0.9-2-2-2h-6.3l0.9-4.6l0-0.3c0-0.4-0.2-0.8-0.4-1.1l-1.1-1L7.6,7.6C7.2,8,7,8.5,7,9v10c0,1.1,0.9,2,2,2h9
	c0.8,0,1.5-0.5,1.8-1.2l3-7.1C23,12.5,23,12.3,23,12V10L23,10L23,10z"/>
</svg>
